<svg 
          width="52.644439697265625" 
          height="11.21961784362793" fill="none" 
          xmlns="http://www.w3.org/2000/svg">
          <path d="M 3.7871673634224705 11.21961784362793 C 3.4036567861086704 11.21961784362793 3.014819310629834 11.163417265951393 2.6206556513300874 11.051016722371342 C 2.2264919920303408 10.93861617879129 1.8536345307188733 10.770015489854307 1.5020830973137502 10.545214402694207 C 1.161184813927347 10.310195074659497 0.8575722664671745 10.013866072981866 0.5912454889496196 9.656228001277363 C 0.32491862639109725 9.298589864317071 0.12783683926170772 8.87453373265997 0 8.384058562213434 L 1.5979607331381036 7.770965284341051 C 1.7364507904513051 8.312531561276952 1.9867980385350053 8.757024044171693 2.3490024178605267 9.104443842373692 C 2.721860049253929 9.441645530212659 3.195921874472851 9.610246162050828 3.771187825484519 9.610246162050828 C 4.058820562875644 9.610246162050828 4.330473609255076 9.564264755143894 4.5861475258932005 9.472300644371222 C 4.841821136383842 9.37011835797973 5.060209419144896 9.237281006371513 5.241311846922366 9.073789282889335 C 5.422413951544159 8.900079383788336 5.566230388272496 8.695714288959035 5.672761004033634 8.460694960924325 C 5.779291934446352 8.225675632889615 5.832557471937533 7.965111012633379 5.832557471937533 7.679000561795355 C 5.832557471937533 7.392889980445754 5.779291934446352 7.132325343875569 5.672761004033634 6.897306162666384 C 5.576883325688797 6.65206843061759 5.43839348948211 6.442594378490459 5.257291384860317 6.268884560959196 C 5.076189280238524 6.0951747434279335 4.8578009804692766 5.962338354342608 4.602127063831152 5.870374243569935 C 4.34645345334051 5.768191728783179 4.069473814943525 5.717100402055526 3.771187825484519 5.717100402055526 C 3.4196363920793957 5.717100402055526 3.1000442386484974 5.793737012847732 2.8124111951098896 5.947010642280826 C 2.5247783216532165 6.090065867699838 2.285083942953044 6.279102752891965 2.09332858626337 6.5141220809266756 L 0.33557179341801063 5.763082241282061 L 0.9907357062505324 0.4904750399349573 L 6.95113002595387 0.4904750399349573 L 6.95113002595387 2.0385370804970333 L 2.476839265626331 2.0385370804970333 L 2.0773490483254182 4.766804881669968 L 2.1732268202153193 4.7974594411543245 C 2.407594402799617 4.623749623623062 2.6792475852445965 4.475584959644774 2.9881866566895487 4.352966240445903 C 3.297125728134501 4.230347219439007 3.675309781463522 4.169037839447137 4.122738748643838 4.169037839447137 C 4.580820967892034 4.169037839447137 5.017596989151952 4.255892511660533 5.433066846439977 4.429602639156794 C 5.859189615632014 4.593094362638973 6.232047247025415 4.82811370698763 6.551639400456313 5.134660639574873 C 6.8712315538872115 5.441207572162116 7.126905130361466 5.8090643415317516 7.31866048705114 6.2382300014748395 C 7.510415843740814 6.6673956614179275 7.6062938027208435 7.142543356354917 7.6062938027208435 7.6636732820531765 C 7.6062938027208435 8.174584803737353 7.510415843740814 8.649732563930133 7.31866048705114 9.089116562631514 C 7.126905130361466 9.51828228783039 6.860578675999588 9.891248030811806 6.519680324580411 10.208013204273659 C 6.178781973161233 10.524778377735512 5.773965163842767 10.77512487131477 5.305229998674172 10.959053043918273 C 4.847148085573458 11.132762975647166 4.3411272525114075 11.21961784362793 3.7871673634224705 11.21961784362793 ZM 10.378005615423987 11.06634400211352 C 10.037107332037584 11.06634400211352 9.74414733930936 10.953943890853074 9.499126674739117 10.729142803692973 C 9.264759092154819 10.494123491972209 9.147575751579797 10.213121655839124 9.147575751579797 9.886138241502662 C 9.147575751579797 9.559154794538305 9.264759092154819 9.2781539861839 9.499126674739117 9.043134723404979 C 9.74414733930936 8.808115395370269 10.037107332037584 8.690605201149626 10.378005615423987 8.690605201149626 C 10.718903966843165 8.690605201149626 11.011863891538615 8.808115395370269 11.256884556108858 9.043134723404979 C 11.5019052206791 9.2781539861839 11.624415017206129 9.559154794538305 11.624415017206129 9.886138241502662 C 11.624415017206129 10.213121655839124 11.5019052206791 10.494123491972209 11.256884556108858 10.729142803692973 C 11.011863891538615 10.953943890853074 10.718903966843165 11.06634400211352 10.378005615423987 11.06634400211352 Z M 10.378005615423987 5.686445842571169 C 10.037107332037584 5.686445842571169 9.74414733930936 5.574044524078623 9.499126674739117 5.349243600057995 C 9.264759092154819 5.114224272023284 9.147575751579797 4.833223528924669 9.147575751579797 4.5062400819603114 C 9.147575751579797 4.179256634995954 9.264759092154819 3.9033642455791204 9.499126674739117 3.6785633215584923 C 9.74414733930936 3.4435439935237815 10.037107332037584 3.3260343213494528 10.378005615423987 3.3260343213494528 C 10.718903966843165 3.3260343213494528 11.011863891538615 3.4435439935237815 11.256884556108858 3.6785633215584923 C 11.5019052206791 3.9033642455791204 11.624415017206129 4.179256634995954 11.624415017206129 4.5062400819603114 C 11.624415017206129 4.833223528924669 11.5019052206791 5.114224272023284 11.256884556108858 5.349243600057995 C 11.011863891538615 5.574044524078623 10.718903966843165 5.686445842571169 10.378005615423987 5.686445842571169 ZM 15.730799231262175 10.974380323660451 L 15.730799231262175 2.5443394001741693 L 13.701389204947256 3.387343440318166 L 13.030246434504521 1.9312456002554725 L 16.242147710849775 0.4904750399349573 L 17.504536650569868 0.4904750399349573 L 17.504536650569868 10.974380323660451 L 15.730799231262175 10.974380323660451 ZM 23.166062994449717 11.21961784362793 C 22.782552417135918 11.21961784362793 22.3990403090847 11.168526321132909 22.0155297317709 11.06634400211352 C 21.632019018391553 10.964161691251107 21.2698149792299 10.805779088206235 20.928916797892658 10.591196241920743 C 20.598671528459427 10.366395138446695 20.300385181828357 10.08539437903413 20.034058319269835 9.748192723823058 C 19.76773154175228 9.41099110123988 19.56532363883476 9.007371059797265 19.42683370057891 8.537332403727843 L 21.088712177272175 7.878256242536299 C 21.23785532507542 8.430040792974705 21.49352997306586 8.854096989887594 21.855734352391384 9.150425681600227 C 22.21793890179884 9.44675437331286 22.654715637402887 9.594918882308649 23.166062994449717 9.594918882308649 C 23.42173660494036 9.594918882308649 23.666756180986216 9.55404650611231 23.901123916644256 9.472300644371222 C 24.1461445812145 9.390554782630133 24.359205506589294 9.27815362727706 24.540307611211087 9.135098401858048 C 24.721410038988555 8.981824935564427 24.86522669682341 8.808115281172636 24.971757312584547 8.613968802438734 C 25.078287928345684 8.409604229655747 25.131554869012827 8.18480294672828 25.131554869012827 7.939565361505012 C 25.131554869012827 7.694327776281744 25.072961327824036 7.469526493354276 24.955777774646595 7.265161920571289 C 24.84924684423388 7.0607971846488295 24.70010389202486 6.887087546570987 24.508348535335184 6.744032321151975 C 24.316593484792993 6.600977095732963 24.08755308951302 6.488576829490017 23.821226226954497 6.406831122731427 C 23.565552310316374 6.325085106007839 23.28857188954249 6.284211840701375 22.99028590008348 6.284211840701375 L 22.047488807646804 6.284211840701375 L 22.047488807646804 4.705495762701255 L 22.89440867245577 4.705495762701255 C 23.150082282946414 4.705495762701255 23.384451141145224 4.674840550659007 23.597512695823177 4.613531040155559 C 23.821227179413334 4.542003427446053 24.01830860086656 4.444930400160417 24.18875777657615 4.322311680961546 C 24.35920695228574 4.199692961762675 24.49237072372887 4.046419422056291 24.58824840207371 3.862491200510945 C 24.684126080418547 3.668344868602568 24.73206424351527 3.448652771368194 24.73206424351527 3.2034150393194007 C 24.73206424351527 2.784467489739345 24.572268081758853 2.457484287484197 24.252675928327957 2.222464959449486 C 23.94373668680107 1.9772275210517438 23.549572007009715 1.8546086794982681 23.07018358977324 1.8546086794982681 C 22.80385689729665 1.8546086794982681 22.569490046064676 1.8903727672686115 22.3670817434546 1.961900681786142 C 22.175326386764926 2.0334279845306495 22.0102037860647 2.13050101997326 21.871713890329335 2.2531200409801557 C 21.73322399459397 2.375738450214029 21.616039556990472 2.5136843186434996 21.520161878645634 2.6669576381115956 C 21.43493729079084 2.810013467146656 21.365693193332834 2.958178041398235 21.312427885452266 3.111451360866331 L 19.6825084846349 2.4523746776284736 C 19.767733072489694 2.207137239230731 19.90089683542873 1.9567908924769988 20.081999110132458 1.7013353600301722 C 20.263101299795217 1.4356611136042647 20.49214154200145 1.19553259987646 20.769121418513144 0.9809500798699146 C 21.046101363057613 0.7663669399333726 21.371020125514256 0.5926570816172416 21.743877586825725 0.4598199584042879 C 22.127388164139525 0.3167647329852763 22.569489314712357 0.2452369979211659 23.07018358977324 0.2452369979211659 C 23.581531116902006 0.2452369979211659 24.050266350103374 0.3167647329852763 24.47638945945928 0.4598199584042879 C 24.902512228651318 0.6028751838232995 25.270044866797353 0.8021308645642431 25.57898410832424 1.0575870006271189 C 25.887923009687256 1.3130425330739455 26.12761631687124 1.61448042679362 26.29806549258083 1.961900681786142 C 26.468514668290418 2.309320316848668 26.55374027663682 2.6873946092792336 26.55374027663682 3.0961240811241524 C 26.55374027663682 3.3924526096973127 26.511126222361398 3.6632356013397374 26.425901796084442 3.90847303973748 C 26.351329984068112 4.153710771786273 26.244800771482932 4.373402869020647 26.10631103732541 4.567549200929024 C 25.967820980012206 4.75147742247437 25.813351435785634 4.9098601478738475 25.642902260076045 5.042696961121803 C 25.472453084366457 5.175534084334757 25.29667743569667 5.287934048769679 25.115575331074876 5.379898159542352 L 25.115575331074876 5.471862882088048 C 25.36059599564512 5.574045396874803 25.594962693803357 5.706882520087756 25.818677177393514 5.870374243569935 C 26.04239166098367 6.023647563038031 26.234146473411155 6.207575572502061 26.39394272020854 6.422158402473605 C 26.564391895918128 6.636741232445149 26.697555982012837 6.881978621901049 26.793433345706095 7.157870962376041 C 26.889311347206608 7.423545045662475 26.93724918714766 7.7147648779609606 26.93724918714766 8.031530084050708 C 26.93724918714766 8.49135049924552 26.841372860954205 8.920515832909661 26.64961750426453 9.319026802856815 C 26.457862147574854 9.707319597185148 26.191534604688595 10.044520991373062 25.850636253269418 10.330631442211086 C 25.52039084777064 10.606523717430289 25.126228004864178 10.82110685736683 24.668146091763465 10.974380323660451 C 24.210063872515267 11.137872030828683 23.709369631470775 11.21961784362793 23.166062994449717 11.21961784362793 ZM 32.23648631483291 10.974380323660451 L 32.23648631483291 0 L 36.19942913983504 0 C 36.7107766669638 0 37.19016511821667 0.0817455844039856 37.637594085396984 0.2452369979211659 C 38.0956759984977 0.4087290313683426 38.49516543342171 0.6386391900239066 38.83606378484089 0.9349677185970668 C 39.176962136260066 1.2312962471702271 39.443289679146325 1.588934449386308 39.635045035836 2.007881998966364 C 39.837453338446075 2.416611470811283 39.93865625665708 2.8713228797664203 39.93865625665708 3.3720161605759875 C 39.93865625665708 3.862491331022523 39.837453338446075 4.317202772605555 39.635045035836 4.736150322185611 C 39.443289679146325 5.144879467751585 39.176962136260066 5.497408272193257 38.83606378484089 5.793736800766418 C 38.49516543342171 6.090065655618523 38.0956759984977 6.31997579796014 37.637594085396984 6.483467521442319 C 37.19016511821667 6.646959244924497 36.7107766669638 6.728705041409797 36.19942913983504 6.728705041409797 L 34.042182810016506 6.728705041409797 L 34.042182810016506 10.974380323660451 L 32.23648631483291 10.974380323660451 Z M 36.247367753648895 5.07335152060616 C 36.5456537431079 5.07335152060616 36.811979091937204 5.0273690696066025 37.046346827595244 4.93540495883393 C 37.28071424009761 4.833222745855199 37.4777978385996 4.700386364926846 37.637594085396984 4.536894641444667 C 37.79739000903869 4.373402917962489 37.91989870853724 4.189474696417144 38.00512345796987 3.9851099604946842 C 38.09034788424683 3.780745534537223 38.13295976147349 3.576380896498447 38.13295976147349 3.3720161605759875 C 38.13295976147349 3.1574333306044435 38.09034788424683 2.947959506872574 38.00512345796987 2.743595080915113 C 37.91989870853724 2.5392300513416024 37.79739000903869 2.3604109991754036 37.637594085396984 2.2071376797073077 C 37.4777978385996 2.0436462661901276 37.28071424009761 1.9108091429771739 37.046346827595244 1.8086263182254205 C 36.811979091937204 1.7064441052466899 36.5456537431079 1.6553529987573246 36.247367753648895 1.6553529987573246 L 34.042182810016506 1.6553529987573246 L 34.042182810016506 5.07335152060616 L 36.247367753648895 5.07335152060616 ZM 41.474694783564594 0 L 43.28039127874819 0 L 47.019620572619 6.2382300014748395 L 47.11549780024671 6.2382300014748395 L 50.854727094117514 0 L 52.64443969726563 0 L 52.64443969726563 10.974380323660451 L 50.854727094117514 10.974380323660451 L 50.854727094117514 5.012042401637447 L 50.950604321745224 3.172761001881357 L 50.854727094117514 3.172761001881357 L 47.59488393838526 8.644623361923092 L 46.52425054244497 8.644623361923092 L 43.28039127874819 3.172761001881357 L 43.18451405112048 3.172761001881357 L 43.28039127874819 5.012042401637447 L 43.28039127874819 10.974380323660451 L 41.474694783564594 10.974380323660451 L 41.474694783564594 0 Z" fill="rgb(34.00000177323818,34.00000177323818,39.00000147521496)"/>
        </svg>