<svg 
          width="11.444445610046387" 
          height="15.707464218139648" fill="none" 
          xmlns="http://www.w3.org/2000/svg">
          <path d="M 5.377767581435848 0.07791001664513868 C 5.6387311653226755 -0.04709010547402111 5.951017792015429 -0.020114226038863536 6.184430855888707 0.14759107285049036 L 11.136327898342827 3.705488030052629 C 11.33324445961593 3.8469712069388717 11.447723022635751 4.070088747775632 11.444374247876652 4.305872259883529 C 11.441026522561227 4.541655520652551 11.320255495280813 4.761707983907624 11.119395124686278 4.898007547834072 L 6.763616719880214 7.853732109069825 L 11.119395124686278 10.809455664950077 C 11.320255495280813 10.945755731554275 11.441026522561227 11.165807943470474 11.444374247876652 11.401590952900621 C 11.447723022635751 11.637374967686268 11.33324445961593 11.860492508523027 11.136327898342827 12.00197618808702 L 6.184430855888707 15.559873003911042 C 5.951017792015429 15.727577360279614 5.6387311653226755 15.754554064420455 5.377767581435848 15.629553188284671 C 5.116803735188103 15.504553317504387 4.951958959630801 15.249034174246907 4.951958959630801 14.969525238040118 L 4.951958959630801 9.08307830150677 L 1.2156013021389536 11.618479311057225 C 0.868446384703981 11.854050190476798 0.3876792176455011 11.775416310017068 0.14177783965913873 11.442845715857406 C -0.10412353832722365 11.110275121697743 -0.02204136706916654 10.649704675944758 0.325113550365806 10.414133796525185 L 4.098315240289018 7.853732109069825 L 0.325113550365806 5.293329416258964 C -0.02204136706916654 5.057758536839391 -0.10412353832722365 4.597189096441905 0.14177783965913873 4.264618502282244 C 0.3876792176455011 3.932047908122582 0.868446384703981 3.853414027662853 1.2156013021389536 4.088984907082426 L 4.951958959630801 6.624385413955129 L 4.951958959630801 0.7379384145870631 C 4.951958959630801 0.45842957263235345 5.116803735188103 0.20291020159901724 5.377767581435848 0.07791001664513868 Z M 6.492548567592265 9.478400169931662 L 9.366609055579422 11.428667187235996 L 6.492548567592265 13.493656326040556 L 6.492548567592265 9.478400169931662 Z M 6.492548567592265 6.229063545530238 L 6.492548567592265 2.2138066354047177 L 9.366610105023096 4.278796025548153 L 6.492548567592265 6.229063545530238 Z" fill="rgb(34.00000177323818,34.00000177323818,39.00000147521496)"/>
        </svg>