<svg 
          width="17.166671752929688" 
          height="11.780599594116211" fill="none" 
          xmlns="http://www.w3.org/2000/svg">
          <path d="M 0.7542002077983245 0.7393837472439242 C 1.2371066113014422 0.26596416647698456 1.892068253272555 0 2.575000762939453 0 L 12.875003814697266 0 C 13.557936256149938 0 14.21289759115704 0.2659643002252616 14.695804096981494 0.7393837472439242 C 15.178709511378353 1.212802960203102 15.450004577636717 1.8548975420437728 15.450004577636717 2.524414198739188 L 15.450004577636717 2.6687866363329573 C 15.808705531540907 2.7931223783033863 16.138315574285418 2.995028375959789 16.412471272274463 3.2637982134796664 C 16.89537668667132 3.737217359564706 17.166671752929688 4.379311540160545 17.166671752929688 5.048828397478376 L 17.166671752929688 6.731771196637835 C 17.166671752929688 7.40128832145222 16.89537668667132 8.043382234551505 16.412471272274463 8.516801380636544 C 16.138315574285418 8.785571218156422 15.808705531540907 8.987477617057655 15.450004577636717 9.111813225279807 L 15.450004577636717 9.256185395377022 C 15.450004577636717 9.925702520191408 15.178709511378353 10.567795898297586 14.695804096981494 11.041215579375733 C 14.21289759115704 11.514634190467664 13.557937347577536 11.780599594116211 12.875003814697266 11.780599594116211 L 2.575000762939453 11.780599594116211 C 1.8920677075587569 11.780599594116211 1.2371062361232057 11.514634190467664 0.7542002077983245 11.041215579375733 C 0.2712939407236566 10.567795898297586 0 9.92570145020519 0 9.256185395377022 L 0 2.524414198739188 C 0 1.8548980770368804 0.271293804295207 1.2128033280108639 0.7542002077983245 0.7393837472439242 Z M 2.575000762939453 1.6829427991594588 C 2.3473563884078126 1.6829427991594588 2.129035806976996 1.7715975770469023 1.968067153606777 1.9294039590752488 C 1.8070985002365583 2.0872103411035954 1.7166671752929688 2.301241957549337 1.7166671752929688 2.524414198739188 L 1.7166671752929688 9.256185395377022 C 1.7166671752929688 9.479357235322043 1.8070983638081086 9.693388718019508 1.968067153606777 9.851195100047853 C 2.1290362162623446 10.009002017069308 2.347356934121611 10.097656794956752 2.575000762939453 10.097656794956752 L 12.875003814697266 10.097656794956752 C 13.102647234229758 10.097656794956752 13.320967679232126 10.009002017069308 13.481936878316143 9.851195100047853 C 13.64290607740016 9.693388183026398 13.73333740234375 9.479356700328935 13.73333740234375 9.256185395377022 L 13.73333740234375 8.414713995797293 C 13.73333740234375 7.949982067797463 14.11762687625014 7.573242596217564 14.591670989990233 7.573242596217564 C 14.819314409522725 7.573242596217564 15.037634854525095 7.48458781833012 15.198604053609111 7.326780901308666 C 15.359573252693128 7.168973984287212 15.450004577636717 6.9549425015897475 15.450004577636717 6.731771196637835 L 15.450004577636717 5.048828397478376 C 15.450004577636717 4.82565682502991 15.359573252693128 4.611625609828999 15.198604053609111 4.453818692807545 C 15.037634854525095 4.2960117757860905 14.819314409522725 4.207356997898646 14.591670989990233 4.207356997898646 C 14.11762687625014 4.207356997898646 13.73333740234375 3.830617526318747 13.73333740234375 3.3658855983189175 L 13.73333740234375 2.524414198739188 C 13.73333740234375 2.3012424925424444 13.64290607740016 2.087210742348426 13.481936878316143 1.9294039590752488 C 13.320967679232126 1.7715974432986252 13.102648325657356 1.6829427991594588 12.875003814697266 1.6829427991594588 L 2.575000762939453 1.6829427991594588 Z M 4.291667938232422 3.3658855983189175 C 4.765712597686313 3.3658855983189175 5.150001525878906 3.742625069898817 5.150001525878906 4.207356997898646 L 5.150001525878906 7.573242596217564 C 5.150001525878906 8.037974524217393 4.765712597686313 8.414713995797293 4.291667938232422 8.414713995797293 C 3.8176232787785316 8.414713995797293 3.4333343505859375 8.037974524217393 3.4333343505859375 7.573242596217564 L 3.4333343505859375 4.207356997898646 C 3.4333343505859375 3.742625069898817 3.8176232787785316 3.3658855983189175 4.291667938232422 3.3658855983189175 Z M 7.7250022888183585 3.3658855983189175 C 8.19904694827225 3.3658855983189175 8.583335876464844 3.742625069898817 8.583335876464844 4.207356997898646 L 8.583335876464844 7.573242596217564 C 8.583335876464844 8.037974524217393 8.19904694827225 8.414713995797293 7.7250022888183585 8.414713995797293 C 7.250957629364468 8.414713995797293 6.866668701171875 8.037974524217393 6.866668701171875 7.573242596217564 L 6.866668701171875 4.207356997898646 C 6.866668701171875 3.742625069898817 7.250957629364468 3.3658855983189175 7.7250022888183585 3.3658855983189175 Z M 11.158336639404297 3.3658855983189175 C 11.632380753144389 3.3658855983189175 12.016670227050781 3.742625069898817 12.016670227050781 4.207356997898646 L 12.016670227050781 7.573242596217564 C 12.016670227050781 8.037974524217393 11.632380753144389 8.414713995797293 11.158336639404297 8.414713995797293 C 10.684292525664205 8.414713995797293 10.300003051757812 8.037974524217393 10.300003051757812 7.573242596217564 L 10.300003051757812 4.207356997898646 C 10.300003051757812 3.742625069898817 10.684292525664205 3.3658855983189175 11.158336639404297 3.3658855983189175 Z" fill="rgb(34.00000177323818,34.00000177323818,39.00000147521496)"/>
        </svg>