<svg 
          width="29.25" 
          height="29.25" fill="none" 
          xmlns="http://www.w3.org/2000/svg">
          <path d="M 26.975000619888306 29.25 L 16.737501859664917 19.012499690055847 C 15.925001859664917 19.662499699741602 14.990626201033592 20.177082711830735 13.934376239776611 20.556249380111694 C 12.87812627851963 20.935416048392653 11.754167467355728 21.124999999999996 10.562500774860382 21.125 C 7.610417351126671 21.125 5.112250819802284 20.102334037423134 3.0680007934570312 18.057000756263733 C 1.0237507671117783 16.011667475104332 0.0010841931100955549 13.513499975204468 8.597883649485993e-7 10.5625 C -0.0010824735333656577 7.611500024795532 1.0215840637683868 5.11333329975605 3.0680007934570312 3.068000018596649 C 5.114417523145676 1.0226667374372482 7.612584054470062 0 10.562500774860382 0 C 13.512417495250702 0 16.011126428842545 1.0226667374372482 18.058626413345337 3.068000018596649 C 20.10612639784813 5.11333329975605 21.12825154987513 7.611500024795532 21.125001549720764 10.5625 C 21.125001549720764 11.754166692495346 20.935417598113418 12.878124728798866 20.55625092983246 13.934374690055847 C 20.1770842615515 14.990624651312828 19.662501249462366 15.925000309944153 19.01250123977661 16.737500309944153 L 29.25 26.975000619888306 L 26.975000619888306 29.25 Z M 10.562500774860382 17.875 C 12.593750774860382 17.875 14.32058447599411 17.164332926273346 15.743001103401184 15.74299955368042 C 17.165417730808258 14.321666181087494 17.876084883042495 12.594833254814148 17.875001549720764 10.5625 C 17.873918216399034 8.530166745185852 17.163251124322414 6.803875349462032 15.743001103401184 5.383625328540802 C 14.322751082479954 3.9633753076195717 12.595917478203773 3.252166666643461 10.562500774860382 3.25 C 8.52908407151699 3.247833333356539 6.802792772650719 3.9590419977903366 5.383626103401184 5.383625328540802 C 3.9644594341516495 6.808208659291267 3.253250775014749 8.53449995815754 3.250000774860382 10.5625 C 3.2467507747060154 12.59050004184246 3.957959420979023 14.317332871258259 5.383626103401184 15.74299955368042 C 6.809292785823345 17.16866623610258 8.535584181547165 17.879333333286922 10.562500774860382 17.875 Z" fill="rgb(0,0,0)"/>
        </svg>