<svg 
          width="51.23888397216797" 
          height="11.21961784362793" fill="none" 
          xmlns="http://www.w3.org/2000/svg">
          <path d="M 3.686053650366124 11.21961784362793 C 3.312782435284664 11.21961784362793 2.9343265450774094 11.163417265951393 2.5506866750161867 11.051016722371342 C 2.167046804954964 10.93861617879129 1.8041442779614498 10.770015489854307 1.4619789284947322 10.545214402694207 C 1.130182300224142 10.310195074659497 0.8346759147204483 10.013866072981866 0.5754598050918338 9.656228001277363 C 0.3162436126927637 9.298589864317071 0.12442371904738023 8.87453373265997 0 8.384058562213434 L 1.5552967239880515 7.770965284341051 C 1.6900892304479238 8.312531561276952 1.933752448654395 8.757024044171693 2.2862863206681467 9.104443842373692 C 2.6491890132025726 9.441645530212659 3.1105938452742903 9.610246162050828 3.6705007506669354 9.610246162050828 C 3.950453971605982 9.610246162050828 4.21485414385902 9.564264755143894 4.463701813711056 9.472300644371222 C 4.712549185589452 9.37011835797973 4.925106711999138 9.237281006371513 5.1013738797632895 9.073789282889335 C 5.27764073299971 8.900079383788336 5.417617409685597 8.695714288959035 5.521303760834133 8.460694960924325 C 5.624990418233354 8.225675632889615 5.676833817287853 7.965111012633379 5.676833817287853 7.679000561795355 C 5.676833817287853 7.392889980445754 5.624990418233354 7.132325343875569 5.521303760834133 6.897306162666384 C 5.427985923955586 6.65206843061759 5.293193632698899 6.442594378490459 5.116926779462479 6.268884560959196 C 4.940659926226059 6.0951747434279335 4.728102383262281 5.962338354342608 4.479254713410245 5.870374243569935 C 4.230407341531849 5.768191728783179 3.960822792126656 5.717100402055526 3.6705007506669354 5.717100402055526 C 3.3283354012002175 5.717100402055526 3.0172760497809707 5.793737012847732 2.737322530868284 5.947010642280826 C 2.457369177496508 6.090065867699838 2.2240744073436605 6.279102752891965 2.037438733586566 6.5141220809266756 L 0.32661235044298226 5.763082241282061 L 0.964284019197029 0.4904750399349573 L 6.7655415638093075 0.4904750399349573 L 6.7655415638093075 2.0385370804970333 L 2.4107100479925725 2.0385370804970333 L 2.021885833887377 4.766804881669968 L 2.115203761813426 4.7974594411543245 C 2.343313956165025 4.623749623623062 2.6077142608507917 4.475584959644774 2.9084049572902755 4.352966240445903 C 3.2090956537297592 4.230347219439007 3.5771825578754286 4.169037839447137 4.012665603510919 4.169037839447137 C 4.4585174696670835 4.169037839447137 4.883631992755539 4.255892511660533 5.28800920588447 4.429602639156794 C 5.702754908452253 4.593094362638973 6.065657600986678 4.82811370698763 6.376716952405925 5.134660639574873 C 6.687776303825172 5.441207572162116 6.936623642595386 5.8090643415317516 7.12325931635248 6.2382300014748395 C 7.309894990109575 6.6673956614179275 7.403213100130626 7.142543356354917 7.403213100130626 7.6636732820531765 C 7.403213100130626 8.174584803737353 7.309894990109575 8.649732563930133 7.12325931635248 9.089116562631514 C 6.936623642595386 9.51828228783039 6.677407847494503 9.891248030811806 6.345611153007548 10.208013204273659 C 6.013814458520593 10.524778377735512 5.619805867263243 10.77512487131477 5.163585478560044 10.959053043918273 C 4.71773391037752 11.132762975647166 4.22522334512379 11.21961784362793 3.686053650366124 11.21961784362793 ZM 10.100922882817517 11.06634400211352 C 9.769126254546928 11.06634400211352 9.483988010846172 10.953943890853074 9.24550916151481 10.729142803692973 C 9.017398967163212 10.494123491972209 8.903344308670826 10.213121655839124 8.903344308670826 9.886138241502662 C 8.903344308670826 9.559154794538305 9.017398967163212 9.2781539861839 9.24550916151481 9.043134723404979 C 9.483988010846172 8.808115395370269 9.769126254546928 8.690605201149626 10.100922882817517 8.690605201149626 C 10.432719577304471 8.690605201149626 10.717857754788865 8.808115395370269 10.956336604120226 9.043134723404979 C 11.194815453451588 9.2781539861839 11.314054356663398 9.559154794538305 11.314054356663398 9.886138241502662 C 11.314054356663398 10.213121655839124 11.194815453451588 10.494123491972209 10.956336604120226 10.729142803692973 C 10.717857754788865 10.953943890853074 10.432719577304471 11.06634400211352 10.100922882817517 11.06634400211352 Z M 10.100922882817517 5.686445842571169 C 9.769126254546928 5.686445842571169 9.483988010846172 5.574044524078623 9.24550916151481 5.349243600057995 C 9.017398967163212 5.114224272023284 8.903344308670826 4.833223528924669 8.903344308670826 4.5062400819603114 C 8.903344308670826 4.179256634995954 9.017398967163212 3.9033642455791204 9.24550916151481 3.6785633215584923 C 9.483988010846172 3.4435439935237815 9.769126254546928 3.3260343213494528 10.100922882817517 3.3260343213494528 C 10.432719577304471 3.3260343213494528 10.717857754788865 3.4435439935237815 10.956336604120226 3.6785633215584923 C 11.194815453451588 3.9033642455791204 11.314054356663398 4.179256634995954 11.314054356663398 4.5062400819603114 C 11.314054356663398 4.833223528924669 11.194815453451588 5.114224272023284 10.956336604120226 5.349243600057995 C 10.717857754788865 5.574044524078623 10.432719577304471 5.686445842571169 10.100922882817517 5.686445842571169 ZM 15.310802075873877 10.974380323660451 L 15.310802075873877 2.5443394001741693 L 13.335575338382254 3.387343440318166 L 12.682351432092663 1.9312456002554725 L 15.808498044633414 0.4904750399349573 L 17.03718241817848 0.4904750399349573 L 17.03718241817848 10.974380323660451 L 15.310802075873877 10.974380323660451 ZM 22.547551473440727 11.21961784362793 C 22.174280258359268 11.21961784362793 21.801007553409605 11.168526321132909 21.427736338328145 11.06634400211352 C 21.05446499081396 10.964161691251107 20.70193144988203 10.805779088206235 20.370134920935985 10.591196241920743 C 20.048706881428792 10.366395138446695 19.758384492333157 10.08539437903413 19.499168299934087 9.748192723823058 C 19.239952190305473 9.41099110123988 19.042948383022487 9.007371059797265 18.90815599244125 8.537332403727843 L 20.525663917927872 7.878256242536299 C 20.670825087644552 8.430040792974705 20.919673469322507 8.854096989887594 21.27220734133626 9.150425681600227 C 21.62474137889092 9.44675437331286 22.049856597251207 9.594918882308649 22.547551473440727 9.594918882308649 C 22.79639884531912 9.594918882308649 23.034876635188652 9.55404650611231 23.26298697852707 9.472300644371222 C 23.501465827858432 9.390554782630133 23.708838232181865 9.27815362727706 23.885105085418285 9.135098401858048 C 24.061372253182437 8.981824935564427 24.201349145071507 8.808115281172636 24.305035496220043 8.613968802438734 C 24.40872184736858 8.409604229655747 24.460566612135597 8.18480294672828 24.460566612135597 7.939565361505012 C 24.460566612135597 7.694327776281744 24.40353746193938 7.469526493354276 24.289482596520855 7.265161920571289 C 24.185795939121633 7.0607971846488295 24.040634959777 6.887087546570987 23.853999286019906 6.744032321151975 C 23.667363910236453 6.600977095732963 23.4444386724302 6.488576829490017 23.18522248003113 6.406831122731427 C 22.936374810179093 6.325085106007839 22.666789499285706 6.284211840701375 22.376467457825985 6.284211840701375 L 21.458842137726524 6.284211840701375 L 21.458842137726524 4.705495762701255 L 22.283150059630856 4.705495762701255 C 22.53199743150925 4.705495762701255 22.760108867417685 4.674840550659007 22.96748188424249 4.613531040155559 C 23.185223407060235 4.542003427446053 23.377042944792656 4.444930400160417 23.542941292036133 4.322311680961546 C 23.70883963927961 4.199692961762675 23.838448066560968 4.046419422056291 23.931765903439516 3.862491200510945 C 24.025083740318063 3.668344868602568 24.071742000732215 3.448652771368194 24.071742000732215 3.2034150393194007 C 24.071742000732215 2.784467489739345 23.916212242252133 2.457484287484197 23.605152890832887 2.222464959449486 C 23.30446202885249 1.9772275210517438 22.920821165545803 1.8546086794982681 22.45423195632193 1.8546086794982681 C 22.19501592946377 1.8546086794982681 21.96690644693809 1.8903727672686115 21.76990225063396 1.961900681786142 C 21.583266576876866 2.0334279845306495 21.422552590231454 2.13050101997326 21.287760241035446 2.2531200409801557 C 21.152967891839438 2.375738450214029 21.03891216560818 2.5136843186434996 20.945594328729634 2.6669576381115956 C 20.862645155107895 2.810013467146656 20.795249808214447 2.958178041398235 20.74340663264018 3.111451360866331 L 19.157004506551935 2.4523746776284736 C 19.239953680173674 2.207137239230731 19.369562099177987 1.9567908924769988 19.545829117955318 1.7013353600301722 C 19.722096053962193 1.4356611136042647 19.94502114278163 1.19553259987646 20.2146059239441 0.9809500798699146 C 20.484190771322933 0.7663669399333726 20.800434516448423 0.5926570816172416 21.16333704344194 0.4598199584042879 C 21.536608258523398 0.3167647329852763 21.96690573511217 0.2452369979211659 22.45423195632193 0.2452369979211659 C 22.95192699805236 0.2452369979211659 23.408147452971928 0.3167647329852763 23.82289348662153 0.4598199584042879 C 24.237639189189313 0.6028751838232995 24.595359060656147 0.8021308645642431 24.896049922636543 1.0575870006271189 C 25.196740453535114 1.3130425330739455 25.430034180780225 1.61448042679362 25.595932528023702 1.961900681786142 C 25.76183087526718 2.309320316848668 25.844781042134386 2.6873946092792336 25.844781042134386 3.0961240811241524 C 25.844781042134386 3.3924526096973127 25.803304741975083 3.6632356013397374 25.72035572561721 3.90847303973748 C 25.647774909001594 4.153710771786273 25.54408992356558 4.373402869020647 25.409297731633437 4.567549200929024 C 25.274505225173566 4.75147742247437 25.124159868676777 4.9098601478738475 24.9582615214333 5.042696961121803 C 24.792363174189823 5.175534084334757 24.621280565672826 5.287934048769679 24.445013712436406 5.379898159542352 L 24.445013712436406 5.471862882088048 C 24.683492561767768 5.574045396874803 24.911601895306628 5.706882520087756 25.129343418124375 5.870374243569935 C 25.34708494094212 6.023647563038031 25.533720084968298 6.207575572502061 25.68924992621883 6.422158402473605 C 25.85514827346231 6.636741232445149 25.984757006994354 6.881978621901049 26.078074537622214 7.157870962376041 C 26.171392689028494 7.423545045662475 26.218050634914913 7.7147648779609606 26.218050634914913 8.031530084050708 C 26.218050634914913 8.49135049924552 26.124734114086614 8.920515832909661 25.93809844032952 9.319026802856815 C 25.751462766572423 9.707319597185148 25.492245912009707 10.044520991373062 25.160449217522753 10.330631442211086 C 24.839021045582832 10.606523717430289 24.455381970117983 10.82110685736683 24.00953040193546 10.974380323660451 C 23.563678535779296 11.137872030828683 23.07635234767772 11.21961784362793 22.547551473440727 11.21961784362793 ZM 31.375803246356845 10.974380323660451 L 31.375803246356845 0 L 35.23293932314496 0 C 35.73063436487539 0 36.19722360720745 0.0817455844039856 36.63270665284294 0.2452369979211659 C 37.07855822102547 0.4087290313683426 37.46738167364247 0.6386391900239066 37.799178368129425 0.9349677185970668 C 38.13097506261638 1.2312962471702271 38.39019191717909 1.588934449386308 38.57682759093618 2.007881998966364 C 38.77383178724031 2.416611470811283 38.87233268522077 2.8713228797664203 38.87233268522077 3.3720161605759875 C 38.87233268522077 3.862491331022523 38.77383178724031 4.317202772605555 38.57682759093618 4.736150322185611 C 38.39019191717909 5.144879467751585 38.13097506261638 5.497408272193257 37.799178368129425 5.793736800766418 C 37.46738167364247 6.090065655618523 37.07855822102547 6.31997579796014 36.63270665284294 6.483467521442319 C 36.19722360720745 6.646959244924497 35.73063436487539 6.728705041409797 35.23293932314496 6.728705041409797 L 33.13328938805983 6.728705041409797 L 33.13328938805983 10.974380323660451 L 31.375803246356845 10.974380323660451 Z M 35.27959802224253 5.07335152060616 C 35.569920063702256 5.07335152060616 35.82913478278721 5.0273690696066025 36.05724512612563 4.93540495883393 C 36.28535515493632 4.833222745855199 36.47717681159241 4.700386364926846 36.63270665284294 4.536894641444667 C 36.78823617956574 4.373402917962489 36.90747401503867 4.189474696417144 36.99042334592428 3.9851099604946842 C 37.07337236228215 3.780745534537223 37.11484654351779 3.576380896498447 37.11484654351779 3.3720161605759875 C 37.11484654351779 3.1574333306044435 37.07337236228215 2.947959506872574 36.99042334592428 2.743595080915113 C 36.90747401503867 2.5392300513416024 36.78823617956574 2.3604109991754036 36.63270665284294 2.2071376797073077 C 36.47717681159241 2.0436462661901276 36.28535515493632 1.9108091429771739 36.05724512612563 1.8086263182254205 C 35.82913478278721 1.7064441052466899 35.569920063702256 1.6553529987573246 35.27959802224253 1.6553529987573246 L 33.13328938805983 1.6553529987573246 L 33.13328938805983 5.07335152060616 L 35.27959802224253 5.07335152060616 ZM 40.36736046611445 0 L 42.12484660781743 0 L 45.7642420888169 6.2382300014748395 L 45.85755948701203 6.2382300014748395 L 49.49695496801151 0 L 51.238883972167976 0 L 51.238883972167976 10.974380323660451 L 49.49695496801151 10.974380323660451 L 49.49695496801151 5.012042401637447 L 49.59027236620664 3.172761001881357 L 49.49695496801151 3.172761001881357 L 46.324146477987696 8.644623361923092 L 45.28209796029473 8.644623361923092 L 42.12484660781743 3.172761001881357 L 42.0315292096223 3.172761001881357 L 42.12484660781743 5.012042401637447 L 42.12484660781743 10.974380323660451 L 40.36736046611445 10.974380323660451 L 40.36736046611445 0 Z" fill="rgb(34.00000177323818,34.00000177323818,39.00000147521496)"/>
        </svg>