<svg 
          width="16" 
          height="21" fill="none" 
          xmlns="http://www.w3.org/2000/svg">
          <path d="M 8 16 C 7.469567000865936 16 6.960859566926956 15.78928592801094 6.585786819458008 15.414213180541992 C 6.2107140719890594 15.039140433073044 6 14.530432999134064 6 14 C 6 12.889999985694885 6.889999985694885 12 8 12 C 8.530432999134064 12 9.039140433073044 12.21071407198906 9.414213180541992 12.585786819458008 C 9.78928592801094 12.960859566926956 10 13.469567000865936 10 14 C 10 14.530432999134064 9.78928592801094 15.039140433073044 9.414213180541992 15.414213180541992 C 9.039140433073044 15.78928592801094 8.530432999134064 16 8 16 Z M 14 19 L 14 9 L 2 9 L 2 19 L 14 19 Z M 14 7 C 14.530432999134064 7 15.039140433073044 7.2107140719890594 15.414213180541992 7.585786819458008 C 15.78928592801094 7.960859566926956 16 8.469567000865936 16 9 L 16 19 C 16 19.530432999134064 15.78928592801094 20.039140433073044 15.414213180541992 20.414213180541992 C 15.039140433073044 20.78928592801094 14.530432999134064 21 14 21 L 2 21 C 1.4695670008659363 21 0.960859090089798 20.78928592801094 0.5857863426208496 20.414213180541992 C 0.21071359515190125 20.039140433073044 1.3322676295501878e-15 19.530432999134064 0 19 L 0 9 C 0 7.889999985694885 0.8899999856948853 7 2 7 L 3 7 L 3 5 C 3.0000000000000018 3.673917531967163 3.5267841815948486 2.4021480083465576 4.464466094970703 1.4644660949707031 C 5.402148008346558 0.5267841815948486 6.673917531967163 8.881784197001252e-16 8 0 C 8.65660935640335 -4.440892098500626e-16 9.306788921356201 0.12932884693145752 9.913416862487793 0.3806023597717285 C 10.520044803619385 0.6318758726119995 11.071240991353989 1.000173181295395 11.535533905029297 1.4644660949707031 C 11.999826818704605 1.9287590086460114 12.368124604225159 2.479954719543457 12.61939811706543 3.086582660675049 C 12.8706716299057 3.6932106018066406 13.000000000000004 4.343390643596649 13 5 L 13 7 L 14 7 Z M 8 2 C 7.204350531101227 2.000000000000001 6.441288411617279 2.3160706162452698 5.878679275512695 2.8786797523498535 C 5.316070139408112 3.4412888884544373 5 4.204350531101227 5 5 L 5 7 L 11 7 L 11 5 C 11 4.204350531101227 10.683929860591888 3.4412888884544373 10.121320724487305 2.8786797523498535 C 9.558711588382721 2.3160706162452698 8.795649468898773 2.0000000000000004 8 2 Z" fill="rgb(0,0,0)"/>
        </svg>