<svg 
          width="16" 
          height="16" fill="none" 
          xmlns="http://www.w3.org/2000/svg">
          <path d="M 8 0 C 9.060865998268127 8.881784197001252e-16 10.078281819820404 0.4214271903038025 10.8284273147583 1.1715726852416992 C 11.578572809696198 1.921718180179596 11.999999999999998 2.9391340017318726 12 4 C 11.999999999999998 5.060865998268127 11.578572809696198 6.078281819820404 10.8284273147583 6.828427314758301 C 10.078281819820404 7.5785728096961975 9.060865998268127 7.999999999999998 8 8 C 6.939134001731873 7.999999999999998 5.921718180179596 7.5785728096961975 5.171572685241699 6.828427314758301 C 4.4214271903038025 6.078281819820404 4.000000000000003 5.060865998268127 4 4 C 4.000000000000001 2.9391340017318726 4.4214271903038025 1.921718180179596 5.171572685241699 1.1715726852416992 C 5.921718180179596 0.4214271903038025 6.939134001731873 8.881784197001252e-16 8 0 Z M 8 10 C 12.420000076293945 10 16 11.789999961853027 16 14 L 16 16 L 0 16 L 0 14 C 0 11.789999961853027 3.5799999237060547 10 8 10 Z" fill="rgb(0,0,0)"/>
        </svg>