<svg 
          width="16.708337783813477" 
          height="11.780599594116211" fill="none" 
          xmlns="http://www.w3.org/2000/svg">
          <path d="M 0.7340637725170078 0.7393837472439242 C 1.204077029822963 0.26596416647698456 1.8415518127625772 0 2.5062506675720213 0 L 12.531253337860106 0 C 13.19595212627658 0 13.833426610447834 0.2659643002252616 14.303439967343243 0.7393837472439242 C 14.773452261951144 1.212802960203102 15.037504005432128 1.8548975420437728 15.037504005432128 2.524414198739188 L 15.037504005432128 2.6687866363329573 C 15.386627981673154 2.7931223783033863 15.707437746686141 2.995028375959789 15.97427374572459 3.2637982134796664 C 16.444286040332493 3.737217359564706 16.708337783813477 4.379311540160545 16.708337783813477 5.048828397478376 L 16.708337783813477 6.731771196637835 C 16.708337783813477 7.40128832145222 16.444286040332493 8.043382234551505 15.97427374572459 8.516801380636544 C 15.707437746686141 8.785571218156422 15.386627981673154 8.987477617057655 15.037504005432128 9.111813225279807 L 15.037504005432128 9.256185395377022 C 15.037504005432128 9.925702520191408 14.773452261951144 10.567795898297586 14.303439967343243 11.041215579375733 C 13.833426610447834 11.514634190467664 13.195953188564088 11.780599594116211 12.531253337860106 11.780599594116211 L 2.5062506675720213 11.780599594116211 C 1.8415512816188233 11.780599594116211 1.2040766646616323 11.514634190467664 0.7340637725170078 11.041215579375733 C 0.264050647996991 10.567795898297586 0 9.92570145020519 0 9.256185395377022 L 0 2.524414198739188 C 0 1.8548980770368804 0.26405051521105255 1.2128033280108639 0.7340637725170078 0.7393837472439242 Z M 2.5062506675720213 1.6829427991594588 C 2.2846841834566325 1.6829427991594588 2.072192555946943 1.7715975770469023 1.9155216140297244 1.9294039590752488 C 1.758850672112506 2.0872103411035954 1.6708337783813474 2.301241957549337 1.6708337783813474 2.524414198739188 L 1.6708337783813474 9.256185395377022 C 1.6708337783813474 9.479357235322043 1.7588505393265677 9.693388718019508 1.9155216140297244 9.851195100047853 C 2.072192954304758 10.009002017069308 2.284684714600386 10.097656794956752 2.5062506675720213 10.097656794956752 L 12.531253337860106 10.097656794956752 C 12.752818892473925 10.097656794956752 12.965310387197677 10.009002017069308 13.12198186025865 9.851195100047853 C 13.278653333319623 9.693388183026398 13.36667022705078 9.479356700328935 13.36667022705078 9.256185395377022 L 13.36667022705078 8.414713995797293 C 13.36667022705078 7.949982067797463 13.7406995339079 7.573242596217564 14.202087116241454 7.573242596217564 C 14.423652670855274 7.573242596217564 14.636144165579024 7.48458781833012 14.792815638639997 7.326780901308666 C 14.94948711170097 7.168973984287212 15.037504005432128 6.9549425015897475 15.037504005432128 6.731771196637835 L 15.037504005432128 5.048828397478376 C 15.037504005432128 4.82565682502991 14.94948711170097 4.611625609828999 14.792815638639997 4.453818692807545 C 14.636144165579024 4.2960117757860905 14.423652670855274 4.207356997898646 14.202087116241454 4.207356997898646 C 13.7406995339079 4.207356997898646 13.36667022705078 3.830617526318747 13.36667022705078 3.3658855983189175 L 13.36667022705078 2.524414198739188 C 13.36667022705078 2.3012424925424444 13.278653333319623 2.087210742348426 13.12198186025865 1.9294039590752488 C 12.965310387197677 1.7715974432986252 12.752819954761433 1.6829427991594588 12.531253337860106 1.6829427991594588 L 2.5062506675720213 1.6829427991594588 Z M 4.177084445953369 3.3658855983189175 C 4.638472559430678 3.3658855983189175 5.012501335144043 3.742625069898817 5.012501335144043 4.207356997898646 L 5.012501335144043 7.573242596217564 C 5.012501335144043 8.037974524217393 4.638472559430678 8.414713995797293 4.177084445953369 8.414713995797293 C 3.715696332476061 8.414713995797293 3.341667556762695 8.037974524217393 3.341667556762695 7.573242596217564 L 3.341667556762695 4.207356997898646 C 3.341667556762695 3.742625069898817 3.715696332476061 3.3658855983189175 4.177084445953369 3.3658855983189175 Z M 7.518752002716064 3.3658855983189175 C 7.980140116193373 3.3658855983189175 8.354168891906738 3.742625069898817 8.354168891906738 4.207356997898646 L 8.354168891906738 7.573242596217564 C 8.354168891906738 8.037974524217393 7.980140116193373 8.414713995797293 7.518752002716064 8.414713995797293 C 7.057363889238755 8.414713995797293 6.68333511352539 8.037974524217393 6.68333511352539 7.573242596217564 L 6.68333511352539 4.207356997898646 C 6.68333511352539 3.742625069898817 7.057363889238755 3.3658855983189175 7.518752002716064 3.3658855983189175 Z M 10.860419559478759 3.3658855983189175 C 11.321807141812313 3.3658855983189175 11.695836448669432 3.742625069898817 11.695836448669432 4.207356997898646 L 11.695836448669432 7.573242596217564 C 11.695836448669432 8.037974524217393 11.321807141812313 8.414713995797293 10.860419559478759 8.414713995797293 C 10.399031977145205 8.414713995797293 10.025002670288085 8.037974524217393 10.025002670288085 7.573242596217564 L 10.025002670288085 4.207356997898646 C 10.025002670288085 3.742625069898817 10.399031977145205 3.3658855983189175 10.860419559478759 3.3658855983189175 Z" fill="rgb(34.00000177323818,34.00000177323818,39.00000147521496)"/>
        </svg>