<svg 
          width="11.138890266418457" 
          height="15.707464218139648" fill="none" 
          xmlns="http://www.w3.org/2000/svg">
          <path d="M 5.234186522353852 0.07791001664513868 C 5.488182637455742 -0.04709010547402111 5.792131521038792 -0.020114226038863536 6.019312687678322 0.14759107285049036 L 10.838998991930415 3.705488030052629 C 11.030658076380611 3.8469712069388717 11.142080175343244 4.070088747775632 11.138820809547857 4.305872259883529 C 11.135562465177038 4.541655520652551 11.018015904506745 4.761707983907624 10.822518306531302 4.898007547834072 L 6.583034863717919 7.853732109069825 L 10.822518306531302 10.809455664950077 C 11.018015904506745 10.945755731554275 11.135562465177038 11.165807943470474 11.138820809547857 11.401590952900621 C 11.142080175343244 11.637374967686268 11.030658076380611 11.860492508523027 10.838998991930415 12.00197618808702 L 6.019312687678322 15.559873003911042 C 5.792131521038792 15.727577360279614 5.488182637455742 15.754554064420455 5.234186522353852 15.629553188284671 C 4.980190151895821 15.504553317504387 4.819746568301585 15.249034174246907 4.819746568301585 14.969525238040118 L 4.819746568301585 9.08307830150677 L 1.1831459533832596 11.618479311057225 C 0.8452597278275906 11.854050190476798 0.37732856715518015 11.775416310017068 0.13799251199959314 11.442845715857406 C -0.10134354315599389 11.110275121697743 -0.021452884435902375 10.649704675944758 0.3164333411197666 10.414133796525185 L 3.988894289356908 7.853732109069825 L 0.3164333411197666 5.293329416258964 C -0.021452884435902375 5.057758536839391 -0.10134354315599389 4.597189096441905 0.13799251199959314 4.264618502282244 C 0.37732856715518015 3.932047908122582 0.8452597278275906 3.853414027662853 1.1831459533832596 4.088984907082426 L 4.819746568301585 6.624385413955129 L 4.819746568301585 0.7379384145870631 C 4.819746568301585 0.45842957263235345 4.980190151895821 0.20291020159901724 5.234186522353852 0.07791001664513868 Z M 6.319203962166364 9.478400169931662 L 9.116529886511273 11.428667187235996 L 6.319203962166364 13.493656326040556 L 6.319203962166364 9.478400169931662 Z M 6.319203962166364 6.229063545530238 L 6.319203962166364 2.2138066354047177 L 9.11653090793584 4.278796025548153 L 6.319203962166364 6.229063545530238 Z" fill="rgb(34.00000177323818,34.00000177323818,39.00000147521496)"/>
        </svg>