<svg 
          width="32.004432678222656" 
          height="34.50468444824219" fill="none" 
          xmlns="http://www.w3.org/2000/svg">
          <path d="M 20.002214431762695 17.25000071515866 L 20.002214431762695 32.35333306612239 C 20.082214429974556 32.92833311280946 19.88221451640129 33.541666315058784 19.42221450805664 33.944166319179175 C 19.237187176942825 34.121848132732424 19.017409771680832 34.262814296626466 18.775463104248047 34.358995431582024 C 18.533516436815262 34.45517656653758 18.274151504039764 34.50468444824219 18.01221466064453 34.50468444824219 C 17.750277817249298 34.50468444824219 17.4909128844738 34.45517656653758 17.248966217041016 34.358995431582024 C 17.00701954960823 34.262814296626466 16.787242144346237 34.121848132732424 16.602214813232422 33.944166319179175 L 12.582215309143066 30.0916693765219 C 12.364210098981857 29.88723087352779 12.198438376188278 29.63728608748973 12.097830772399902 29.361337925345037 C 11.997223168611526 29.085389763200343 11.964500151574612 28.790899885489523 12.002215385437012 28.500836123465113 L 12.002215385437012 17.25000071515866 L 11.942215919494629 17.25000071515866 L 0.4222153425216675 3.1049999093834573 C 0.09743168950080872 2.705432989107658 -0.04911714792251587 2.198911226558866 0.014591105282306671 1.696115703170283 C 0.07829935848712921 1.1933201797816997 0.3470850884914398 0.7351305677786916 0.7622154951095581 0.4216667389845983 C 1.1422154903411865 0.15333339338415225 1.5622153878211975 0 2.0022153854370117 0 L 30.002214431762695 0 C 30.44221442937851 0 30.862216114997864 0.15333339338415225 31.242216110229492 0.4216667389845983 C 31.65734651684761 0.7351305677786916 31.926131300628185 1.1933201797816997 31.989839553833008 1.696115703170283 C 32.05354780703783 2.198911226558866 31.90699991583824 2.705432989107658 31.582216262817383 3.1049999093834573 L 20.062213897705078 17.25000071515866 L 20.002214431762695 17.25000071515866 Z" fill="rgb(0,0,0)"/>
        </svg>