<svg 
          width="27.66032600402832" 
          height="29.25" fill="none" 
          xmlns="http://www.w3.org/2000/svg">
          <path d="M 25.50896790102484 29.25 L 15.827854972012371 19.012499690055847 C 15.059512583011585 19.662499699741602 14.175918212824538 20.177082711830735 13.177073143760936 20.556249380111694 C 12.178228074697333 20.935416048392653 11.115353984718062 21.124999999999996 9.98845178975863 21.125 C 7.196807690901791 21.125 4.83441108684076 20.102334037423134 2.9012616112013347 18.057000756263733 C 0.9681121355619098 16.011667475104332 0.0010252695684295527 13.513499975204468 8.130607339811533e-7 10.5625 C -0.0010236434469615904 7.611500024795532 0.9660631878411501 5.11333329975605 2.9012616112013347 3.068000018596649 C 4.83646003456152 1.0226667374372482 7.198856638622551 0 9.98845178975863 0 C 12.778046940894708 0 15.140956468837555 1.0226667374372482 17.07717927446457 3.068000018596649 C 19.013402080091584 5.11333329975605 19.97997694921924 7.611500024795532 19.97690357951726 10.5625 C 19.97690357951726 11.754166692495346 19.797623104078244 12.878124728798866 19.439063321017986 13.934374690055847 C 19.08050353795773 14.990624651312828 18.593886995375836 15.925000309944153 17.979213075015853 16.737500309944153 L 27.66032600402832 26.975000619888306 L 25.50896790102484 29.25 Z M 9.98845178975863 17.875 C 11.909307762260596 17.875 13.542291800828178 17.164332926273346 14.887403172712968 15.74299955368042 C 16.23251454459776 14.321666181087494 16.90455848002181 12.594833254814148 16.903534023514112 10.5625 C 16.902509567006415 8.530166745185852 16.23046568847055 6.803875349462032 14.887403172712968 5.383625328540802 C 13.544340656955386 3.9633753076195717 11.911356709981355 3.252166666643461 9.98845178975863 3.25 C 8.065546869535904 3.247833333356539 6.433075754850139 3.9590419977903366 5.091037712952938 5.383625328540802 C 3.748999671055736 6.808208659291267 3.0764436584535293 8.53449995815754 3.073370288751549 10.5625 C 3.070296919049569 12.59050004184246 3.7428529194870066 14.317332871258259 5.091037712952938 15.74299955368042 C 6.439222506418869 17.16866623610258 8.071693712698183 17.879333333286922 9.98845178975863 17.875 Z" fill="rgb(0,0,0)"/>
        </svg>