<svg 
          width="21.000587463378906" 
          height="23.001008987426758" fill="none" 
          xmlns="http://www.w3.org/2000/svg">
          <path d="M 0.13229259848594666 20.88471221923828 C 0.051398321986198425 21.064360544085503 0.006681307801045477 21.258185967803 0.0006931765237823129 21.455116271972656 C -0.005294954753480852 21.65204657614231 0.027562282979488373 21.848227813839912 0.09739194065332413 22.032459259033203 C 0.16722159832715988 22.216690704226494 0.27265526354312897 22.38536174595356 0.4076717793941498 22.528846740722656 C 0.5426882952451706 22.672331735491753 0.704645112156868 22.7878191024065 0.8842934370040894 22.86871337890625 C 1.0639417618513107 22.949607655406 1.2577633708715439 22.994324679020792 1.4546936750411987 23.00031280517578 C 1.6516239792108536 23.00630093133077 1.8478051126003265 22.97344370186329 2.032036542892456 22.903614044189453 C 2.2162679731845856 22.833784386515617 2.3849409371614456 22.728350713849068 2.528425931930542 22.593334197998047 C 2.6719109266996384 22.458317682147026 2.787398301064968 22.296362802386284 2.8682925701141357 22.116714477539062 L 0.13229259848594666 20.88471221923828 Z M 10.500292778015137 1.5007143020629883 L 11.868292808532715 0.8847141265869141 C 11.749739438295364 0.6211274564266205 11.557562112808228 0.39740385115146637 11.314871788024902 0.24045085906982422 C 11.072181463241577 0.08349786698818207 10.78931325674057 3.552713678800501e-15 10.500292778015137 0 C 10.211272299289703 3.552713678800501e-15 9.928404092788696 0.08349786698818207 9.685713768005371 0.24045085906982422 C 9.443023443222046 0.39740385115146637 9.250846117734909 0.6211274564266205 9.132292747497559 0.8847141265869141 L 10.500292778015137 1.5007143020629883 Z M 18.132291793823242 22.116714477539062 C 18.29566514492035 22.47953063249588 18.5964737534523 22.762586683034897 18.96854591369629 22.903614044189453 C 19.340618073940277 23.04464140534401 19.753476798534393 23.032086730003357 20.11629295349121 22.86871337890625 C 20.47910910844803 22.705340027809143 20.762165158987045 22.40453141927719 20.9031925201416 22.032459259033203 C 21.044219881296158 21.660387098789215 21.031665205955505 21.2475283741951 20.8682918548584 20.88471221923828 L 18.132291793823242 22.116714477539062 Z M 4.772292137145996 12.728714942932129 C 4.3744674026966095 12.728714942932125 3.992937058210373 12.886749058961868 3.711632490158081 13.16805362701416 C 3.430327922105789 13.449358195066452 3.272291898727417 13.830890208482742 3.272291898727417 14.228714942932129 C 3.272291898727417 14.626539677381516 3.430327922105789 15.008069783449173 3.711632490158081 15.289374351501465 C 3.992937058210373 15.570678919553757 4.3744674026966095 15.728714942932129 4.772292137145996 15.728714942932129 L 4.772292137145996 12.728714942932129 Z M 2.8682925701141357 22.116714477539062 L 11.868292808532715 2.1167144775390625 L 9.132292747497559 0.8847141265869141 L 0.13229259848594666 20.88471221923828 L 2.8682925701141357 22.116714477539062 Z M 20.8682918548584 20.88471221923828 L 17.59629249572754 13.612713813781738 L 14.8602933883667 14.842713356018066 L 18.132291793823242 22.116714477539062 L 20.8682918548584 20.88471221923828 Z M 17.59629249572754 13.612713813781738 L 11.868292808532715 0.8847141265869141 L 9.132292747497559 2.1167144775390625 L 14.8602933883667 14.842713356018066 L 17.59629249572754 13.612713813781738 Z M 16.22829246520996 12.728714942932129 L 4.772292137145996 12.728714942932129 L 4.772292137145996 15.728714942932129 L 16.22829246520996 15.728714942932129 L 16.22829246520996 12.728714942932129 ZM 16.22829246520996 14.228714942932129 L 17.59629249572754 13.612713813781738" fill="rgb(0,0,0)"/>
        </svg>